<svg width="156" height="31" viewBox="0 0 156 31" fill="none" xmlns="http://www.w3.org/2000/svg">
<path d="M123.717 24.1007L129.561 23.2096C129.809 24.3425 130.314 25.2059 131.073 25.8C131.833 26.3802 132.897 26.6704 134.265 26.6704C135.771 26.6704 136.904 26.3941 137.663 25.8414C138.175 25.4546 138.43 24.9365 138.43 24.2872C138.43 23.8451 138.292 23.479 138.016 23.1889C137.726 22.9126 137.076 22.657 136.068 22.4221C131.371 21.386 128.393 20.4396 127.136 19.5831C125.395 18.3949 124.525 16.744 124.525 14.6302C124.525 12.7237 125.278 11.1211 126.784 9.82248C128.29 8.52384 130.624 7.87451 133.788 7.87451C136.8 7.87451 139.038 8.36496 140.503 9.34585C141.967 10.3267 142.975 11.7774 143.528 13.6977L138.036 14.7131C137.802 13.8566 137.353 13.2003 136.689 12.7444C136.04 12.2885 135.108 12.0606 133.892 12.0606C132.358 12.0606 131.26 12.2747 130.597 12.703C130.155 13.0069 129.934 13.4007 129.934 13.8842C129.934 14.2987 130.127 14.651 130.514 14.9411C131.039 15.3279 132.849 15.8736 135.943 16.5782C139.052 17.2828 141.221 18.1463 142.45 19.1686C143.666 20.2048 144.274 21.6485 144.274 23.4997C144.274 25.5168 143.431 27.2506 141.746 28.7012C140.06 30.1518 137.567 30.8771 134.265 30.8771C131.267 30.8771 128.891 30.2693 127.136 29.0535C125.395 27.8378 124.256 26.1868 123.717 24.1007Z" fill="white"/>
<path d="M114.889 23.3754L120.691 24.3494C119.945 26.4769 118.764 28.1003 117.148 29.2193C115.545 30.3245 113.535 30.8771 111.117 30.8771C107.29 30.8771 104.458 29.6269 102.621 27.1263C101.17 25.123 100.445 22.5948 100.445 19.5416C100.445 15.8944 101.398 13.0415 103.305 10.983C105.211 8.91067 107.622 7.87451 110.537 7.87451C113.811 7.87451 116.395 8.95902 118.287 11.128C120.18 13.2832 121.085 16.592 121.002 21.0544H106.413C106.455 22.7813 106.924 24.1283 107.822 25.0954C108.72 26.0487 109.839 26.5253 111.179 26.5253C112.091 26.5253 112.858 26.2766 113.48 25.7793C114.101 25.2819 114.571 24.4806 114.889 23.3754ZM115.22 17.49C115.179 15.8046 114.744 14.5266 113.915 13.6563C113.086 12.7721 112.077 12.33 110.889 12.33C109.618 12.33 108.568 12.7928 107.739 13.7184C106.91 14.6441 106.503 15.9013 106.517 17.49H115.22Z" fill="white"/>
<path d="M91.1816 30.3798H85.3584V8.37187H90.7671V11.5011C91.6928 10.0228 92.5217 9.04882 93.2539 8.5791C93.9999 8.10937 94.8427 7.87451 95.7821 7.87451C97.1084 7.87451 98.3863 8.24062 99.6159 8.97284L97.813 14.05C96.8321 13.4145 95.9203 13.0967 95.0775 13.0967C94.2624 13.0967 93.5717 13.3247 93.0052 13.7806C92.4388 14.2227 91.9898 15.0309 91.6582 16.2052C91.3405 17.3795 91.1816 19.8386 91.1816 23.5826V30.3798Z" fill="white"/>
<path d="M79.8461 30.3801H74.4373V27.1473C73.5393 28.4045 72.4755 29.3439 71.246 29.9656C70.0302 30.5735 68.8006 30.8774 67.5573 30.8774C65.029 30.8774 62.86 29.862 61.0502 27.8311C59.2542 25.7864 58.3562 22.9405 58.3562 19.2932C58.3562 15.563 59.2335 12.7309 60.988 10.7967C62.7426 8.84876 64.96 7.87478 67.6401 7.87478C70.0993 7.87478 72.2269 8.89711 74.0229 10.9418V0H79.8461V30.3801ZM64.3037 18.8995C64.3037 21.2481 64.6284 22.9474 65.2777 23.9973C66.2172 25.517 67.5296 26.2769 69.2151 26.2769C70.5552 26.2769 71.695 25.7105 72.6344 24.5776C73.5739 23.4309 74.0436 21.7247 74.0436 19.459C74.0436 16.9308 73.5877 15.114 72.6759 14.0088C71.764 12.8898 70.5966 12.3302 69.1737 12.3302C67.7921 12.3302 66.6316 12.8829 65.6922 13.9881C64.7665 15.0795 64.3037 16.7166 64.3037 18.8995Z" fill="white"/>
<path d="M53.735 30.3798H47.9118V19.1479C47.9118 16.7716 47.7875 15.2381 47.5388 14.5473C47.2901 13.8428 46.8826 13.2971 46.3161 12.9102C45.7635 12.5234 45.0935 12.33 44.306 12.33C43.2975 12.33 42.3926 12.6063 41.5913 13.1589C40.79 13.7115 40.2374 14.4437 39.9334 15.3555C39.6433 16.2674 39.4982 17.9528 39.4982 20.412V30.3798H33.675V8.37187H39.0838V11.6047C41.0041 9.1179 43.4218 7.87451 46.3369 7.87451C47.6217 7.87451 48.796 8.10937 49.8598 8.5791C50.9236 9.03501 51.7249 9.62216 52.2637 10.3406C52.8163 11.059 53.1962 11.8741 53.4034 12.7859C53.6245 13.6977 53.735 15.0033 53.735 16.7026V30.3798Z" fill="white"/>
<path d="M30.4837 30.3801H23.8108L21.1583 23.4793H9.01455L6.50705 30.3801H0L11.8329 0H18.3192L30.4837 30.3801ZM19.1896 18.3607L15.0035 7.0873L10.9003 18.3607H19.1896Z" fill="white"/>
<circle cx="151.958" cy="26.1997" r="4.04223" fill="#F8FF64"/>
</svg>
