<svg width="30" height="30" viewBox="0 0 30 30" fill="none" xmlns="http://www.w3.org/2000/svg">
<path fill-rule="evenodd" clip-rule="evenodd" d="M15 30C23.2842 30 30 23.2842 30 15C30 6.71572 23.2842 0 15 0C6.71572 0 0 6.71572 0 15C0 23.2842 6.71572 30 15 30ZM8.30049 7.62596L8.2974 7.62711C7.89003 7.77914 7.56823 8.10063 7.41615 8.50798C7.40308 8.54301 7.39029 8.57812 7.37781 8.6133C6.976 9.745 6.86931 10.9743 7.05892 12.1587C7.06863 12.2193 7.07913 12.2799 7.0904 12.3404C7.04708 12.4098 7.00498 12.4802 6.96417 12.5513C6.31689 13.6781 5.98473 14.9921 6.00054 16.3224C6.00222 19.1744 6.75124 21.2084 8.12176 22.5671C9.46419 23.8979 11.1773 24.3501 12.6006 24.5436L12.6462 24.5496C14.232 24.7855 15.7635 24.7721 17.3443 24.5075L17.3464 24.5072C18.7755 24.3338 20.503 23.9036 21.8589 22.5797C23.2441 21.2271 23.9977 19.1876 23.9994 16.3223C24.0153 14.9921 23.6831 13.6781 23.0358 12.5513C22.995 12.48 22.9527 12.4096 22.9093 12.3399C22.9206 12.2796 22.931 12.2191 22.9407 12.1587C23.1303 10.9688 23.0197 9.73386 22.6102 8.59917C22.5987 8.56695 22.5867 8.53472 22.5745 8.5025C22.422 8.09883 22.1031 7.78038 21.6992 7.62854L21.6973 7.62786L21.6955 7.62719L21.6919 7.62583L21.6846 7.62313L21.6693 7.61768L21.6372 7.60672C21.615 7.5994 21.5913 7.5921 21.5661 7.58496C21.5157 7.57064 21.4593 7.55699 21.3972 7.54499C20.6779 7.40606 19.484 7.53523 17.7609 8.7076C17.7212 8.73466 17.6811 8.7623 17.6407 8.7905C17.5428 8.7666 17.4447 8.74407 17.3464 8.72286C15.7783 8.38461 14.1677 8.38846 12.6006 8.73442C12.5199 8.75221 12.4395 8.77092 12.3591 8.79051C12.3187 8.76231 12.2787 8.73468 12.2388 8.7076C10.5088 7.53115 9.30999 7.40634 8.59301 7.54556C8.53211 7.55738 8.47692 7.57077 8.42745 7.58476C8.40273 7.59175 8.37949 7.59888 8.35773 7.60602L8.32621 7.6167L8.31131 7.62201L8.30406 7.62465L8.30049 7.62596Z" fill="#F8FF64"/>
</svg>
