<svg width="328" height="65" viewBox="0 0 328 65" fill="none" xmlns="http://www.w3.org/2000/svg">
<path d="M260.123 50.6737L272.41 48.8001C272.933 51.1821 273.993 52.9975 275.59 54.2466C277.188 55.4666 279.425 56.0766 282.301 56.0766C285.467 56.0766 287.849 55.4957 289.446 54.3337C290.521 53.5204 291.058 52.4311 291.058 51.0659C291.058 50.1363 290.768 49.3666 290.187 48.7566C289.577 48.1756 288.212 47.6382 286.091 47.1444C276.215 44.9658 269.955 42.9761 267.312 41.1751C263.652 38.677 261.822 35.2058 261.822 30.7615C261.822 26.7529 263.405 23.3834 266.571 20.6529C269.737 17.9224 274.646 16.5571 281.298 16.5571C287.631 16.5571 292.337 17.5883 295.416 19.6507C298.495 21.7131 300.615 24.7631 301.777 28.8008L290.231 30.9358C289.737 29.1348 288.793 27.755 287.398 26.7965C286.033 25.8379 284.072 25.3586 281.516 25.3586C278.292 25.3586 275.983 25.8088 274.588 26.7093C273.659 27.3484 273.194 28.1762 273.194 29.1929C273.194 30.0643 273.601 30.8051 274.414 31.4151C275.518 32.2284 279.323 33.3758 285.83 34.8572C292.366 36.3387 296.926 38.1541 299.511 40.3037C302.068 42.4823 303.346 45.5177 303.346 49.4101C303.346 53.6511 301.574 57.2966 298.03 60.3466C294.486 63.3966 289.243 64.9217 282.301 64.9217C275.997 64.9217 271.001 63.6435 267.312 61.0873C263.652 58.5311 261.255 55.0599 260.123 50.6737Z" fill="white"/>
<path d="M241.561 49.1487L253.761 51.1966C252.193 55.6699 249.709 59.0831 246.31 61.4359C242.941 63.7597 238.714 64.9217 233.631 64.9217C225.585 64.9217 219.63 62.2928 215.767 57.0352C212.717 52.8233 211.192 47.5075 211.192 41.088C211.192 33.4194 213.196 27.421 217.205 23.0929C221.213 18.7357 226.282 16.5571 232.411 16.5571C239.295 16.5571 244.727 18.8374 248.707 23.3979C252.686 27.9293 254.589 34.8863 254.415 44.2687H223.74C223.827 47.8997 224.815 50.7318 226.703 52.7652C228.591 54.7695 230.944 55.7716 233.762 55.7716C235.679 55.7716 237.291 55.2487 238.598 54.203C239.905 53.1573 240.893 51.4725 241.561 49.1487ZM242.258 36.7744C242.171 33.2305 241.256 30.5436 239.513 28.7136C237.77 26.8546 235.65 25.925 233.152 25.925C230.479 25.925 228.272 26.8981 226.529 28.8443C224.786 30.7905 223.929 33.4339 223.958 36.7744H242.258Z" fill="white"/>
<path d="M191.715 63.8759H179.471V17.6028H190.844V24.1822C192.79 21.0741 194.533 19.0262 196.072 18.0386C197.641 17.0509 199.413 16.5571 201.388 16.5571C204.177 16.5571 206.863 17.3269 209.449 18.8664L205.658 29.5415C203.596 28.2053 201.678 27.5372 199.907 27.5372C198.193 27.5372 196.74 28.0165 195.549 28.975C194.358 29.9046 193.414 31.6039 192.717 34.0729C192.049 36.542 191.715 41.7125 191.715 49.5844V63.8759Z" fill="white"/>
<path d="M167.882 63.876H156.509V57.0788C154.621 59.7222 152.385 61.6974 149.799 63.0046C147.243 64.2827 144.658 64.9217 142.044 64.9217C136.728 64.9217 132.167 62.7867 128.362 58.5167C124.586 54.2176 122.698 48.2338 122.698 40.5652C122.698 32.7223 124.542 26.7675 128.231 22.7008C131.92 18.6051 136.583 16.5572 142.218 16.5572C147.388 16.5572 151.862 18.7068 155.638 23.0058V0H167.882V63.876ZM135.203 39.7373C135.203 44.6755 135.885 48.2483 137.251 50.456C139.226 53.6512 141.985 55.2488 145.529 55.2488C148.347 55.2488 150.743 54.0579 152.719 51.676C154.694 49.265 155.681 45.6776 155.681 40.9138C155.681 35.598 154.723 31.7782 152.806 29.4544C150.889 27.1016 148.434 25.9251 145.442 25.9251C142.537 25.9251 140.097 27.087 138.122 29.4109C136.176 31.7056 135.203 35.1478 135.203 39.7373Z" fill="white"/>
<path d="M112.981 63.8759H100.737V40.2601C100.737 35.2639 100.476 32.0396 99.9531 30.5872C99.4303 29.1058 98.5734 27.9584 97.3824 27.145C96.2205 26.3317 94.8117 25.925 93.156 25.925C91.0355 25.925 89.1328 26.506 87.4481 27.6679C85.7633 28.8298 84.6014 30.3693 83.9623 32.2865C83.3523 34.2036 83.0473 37.7475 83.0473 42.918V63.8759H70.8037V17.6028H82.1759V24.4C86.2135 19.1714 91.2969 16.5571 97.426 16.5571C100.127 16.5571 102.596 17.0509 104.833 18.0386C107.07 18.9971 108.755 20.2317 109.887 21.7422C111.049 23.2526 111.848 24.9665 112.284 26.8836C112.749 28.8008 112.981 31.5458 112.981 35.1186V63.8759Z" fill="white"/>
<path d="M64.0939 63.876H50.0638L44.4866 49.3667H18.9537L13.6815 63.876H0L24.8794 0H38.5173L64.0939 63.876ZM40.3473 38.6045L31.5459 14.9015L22.9187 38.6045H40.3473Z" fill="white"/>
<circle cx="319.501" cy="55.0864" r="8.49904" fill="#F8FF64"/>
</svg>
